<?xml version="1.0" encoding="utf-8"?>
<!-- Generator: Adobe Illustrator 25.4.1, SVG Export Plug-In . SVG Version: 6.00 Build 0)  -->
<svg version="1.1" id="Слой_1" xmlns="http://www.w3.org/2000/svg" xmlns:xlink="http://www.w3.org/1999/xlink" x="0px" y="0px"
	 viewBox="0 0 152 176" style="enable-background:new 0 0 152 176;" xml:space="preserve">
<style type="text/css">
	.st0{fill:none;}
	.st1{fill-rule:evenodd;clip-rule:evenodd;fill:#B92034;}
	.st2{fill:#B92034;}
</style>
<a>
	<rect class="st0" width="152" height="176"/>
	<path class="st1" d="M76.4,148.4c26,0,47.3-21.3,47.3-47.3V54.3H29V101C29,127.1,50.3,148.4,76.4,148.4z M34.8,60.1h83.1V101
		c0,22.8-18.7,41.5-41.5,41.5S34.9,123.8,34.9,101V60.1H34.8z"/>
	<path class="st1" d="M82,74.4v-4.1H70.7v17.8H82V74.4z"/>
	<path class="st2" d="M121.1,20.5h-4.3v0.2h4.3V20.5z"/>
	<path class="st2" d="M121.4,20.7h-4.9v0.2h4.9V20.7z"/>
	<path class="st2" d="M121.7,21h-5.4v0.2h5.4V21z"/>
	<path class="st2" d="M122,21.2h-6v0.2h6V21.2z"/>
	<path class="st2" d="M120.3,19.7h-2.6v0.2h2.6V19.7z"/>
	<path class="st2" d="M120,19.4h-2v0.2h2V19.4z"/>
	<path class="st2" d="M120.7,19.9h-3.4v0.2h3.4V19.9z"/>
	<path class="st2" d="M120.9,20.2H117v0.2h3.9V20.2z"/>
	<path class="st2" d="M122.2,21.5h-6.4v0.2h6.4V21.5z"/>
	<path class="st2" d="M122.9,23.1H115v0.2h7.9V23.1z"/>
	<path class="st2" d="M123,23.3h-8v0.2h8V23.3z"/>
	<path class="st2" d="M122.3,21.8h-6.7V22h6.7V21.8z"/>
	<path class="st1" d="M122.7,24h1v-0.4h-9.5V24h1.2l-0.7,16.9h-2.9h-0.7v-1.2h0.4v-1h-0.1V39h-0.2v-0.4H111V39h-0.2v-0.4h-0.2V39
		h-0.2v-0.4h-0.1V39h-0.2v-0.4h-0.2V39h-0.4v-0.4h-0.2V39h-0.2v-0.4h-0.2V39h-0.2v-0.4h-0.1v1h0.4v1.2h-0.7H105v-1.2h0.4v-1h-0.1V39
		h-0.2v-0.4h-0.2V39h-0.2v-0.4h-0.2V39h-0.2v-0.4h-0.1V39H104v-0.4h-0.2V39h-0.3v-0.4h-0.2V39h-0.2v-0.4h-0.2V39h-0.2v-0.4h-0.1v1
		h0.4v1.2h-0.9H99v-1.2h0.4v-1h-0.1V39h-0.2v-0.4h-0.2V39h-0.2v-0.4h-0.2V39h-0.2v-0.4h-0.2V39h-0.2v-0.4h-0.2V39h-0.2v-0.4h-0.2V39
		h-0.2v-0.4h-0.2V39h-0.2v-0.4h-0.2v1h0.4v1.2h-1.1h-2.5v-2.4v-1.7V34h-1.6v-3.2h-1.1H87h-0.4h-0.4h-0.4h-0.4H85h-0.4h-0.4
		c0-3.6-2.9-6.5-6.5-6.7V20c0.3,0,0.5-0.1,0.8-0.1c0.2,0,0.5,0.1,0.6,0.2v0.2c0,0.1,0,0.1,0.1,0.1c0,0,0.2,0,0.4,0
		c0.7,0,1.6-0.1,1.9-0.6c0,0,0,0,0-0.1v-2.4c0,0,0-0.1-0.1-0.1h-0.1c-0.3,0.2-0.7,0.4-1.2,0.4c-0.2,0-0.4,0-0.5-0.1v-0.2v-0.1
		c-0.2-0.1-0.5-0.2-0.8-0.2c-0.5,0-1,0.2-1.3,0.4h-0.3v6.8c-3.6,0.1-6.4,3.1-6.5,6.7h-0.4h-0.4h-0.4h-0.4h-0.4h-0.2h-0.4h-3.6h-1.1
		V34h-1.6v2.8v1.7v2.4h-1.4h-2.3v-1.2h0.4v-1h-0.1V39h-0.2v-0.4H58V39h-0.2v-0.4h-0.2V39h-0.2v-0.4h-0.2V39H57v-0.4h-0.2V39h-0.2
		v-0.4h-0.1V39h-0.2v-0.4h-0.2V39h-0.2v-0.4h-0.1v1h0.4v1.2h-1h-3v-1.2h0.3v-1h-0.1V39h-0.2v-0.4H52V39h-0.2v-0.4h-0.2V39h-0.2v-0.4
		h-0.2V39H51v-0.4h-0.2V39h-0.3v-0.4h-0.2V39h-0.2v-0.4h-0.2V39h-0.2v-0.4h-0.1v1H50v1.2h-0.7H46v-1.2h0.4v-1h-0.1V39h-0.2v-0.4
		h-0.2V39h-0.2v-0.4h-0.2V39h-0.2v-0.4h-0.1V39H45v-0.4h-0.2V39h-0.3v-0.4h-0.2V39h-0.2v-0.4h-0.2V39h-0.2v-0.4h-0.2v1h0.4v1.2h-0.3
		H42h-1.6v-3.5V33v-1h-0.8v1.1h-0.8V32H38v1.1h-0.8V32h-0.7v1.1h-0.3v-2.2c0.1,0,0.1-0.1,0.1-0.1v-1.6h0.2c0.1,0,0.1-0.1,0.1-0.1
		v-0.3c0-0.1-0.1-0.1-0.1-0.1h-0.2l-0.5-3.2l0.1-0.1v-0.2c0-0.1-0.1-0.1-0.1-0.1l-0.2-1c0,0,0,0,0-0.1l-0.2-1.5v-0.1v-0.2
		c0-0.1-0.1-0.1-0.1-0.1l-0.1-0.4c0.1,0,0.1-0.1,0.1-0.1v-0.3c0-0.1-0.1-0.1-0.1-0.1h-1c-0.1,0-0.1,0.1-0.1,0.1v0.3
		c0,0.1,0,0.1,0.1,0.1l-0.1,0.4c-0.1,0-0.1,0.1-0.1,0.1v0.3v0.1L33.6,25c-0.1,0-0.1,0.1-0.1,0.1v0.3c0,0,0,0.1,0.1,0.1l-0.5,3.2
		h-0.2c-0.1,0-0.1,0.1-0.1,0.1v0.3c0,0.1,0.1,0.1,0.1,0.1H33v1.6c0,0.1,0.1,0.1,0.1,0.1v2.2h-0.3V32H32v1.1h-0.8V32h-0.7v1.1h-0.8
		V32h-0.8v1.1v4.3v7.1v0.7v5.3h94.7L122.7,24z M34.8,21.7l0.2,0.4h-0.2V21.7z M34.8,22.9l0.3-0.2l0.2,1.1l-0.5-0.2V22.9z M34.8,23.9
		l0.4,0.2l-0.4,0.2V23.9z M34.8,24.6l0.5-0.3l0.2,0.7h-0.7V24.6z M34.8,25.6h0.7l0.1,0.7l-0.9-0.4L34.8,25.6L34.8,25.6z M34.8,26.1
		l0.7,0.4l-0.7,0.3V26.1z M34.5,28.7h-1.3l0.2-1l1.1,0.5V28.7z M34.5,28l-0.9-0.4l0.9-0.4V28z M34.5,26.9l-1,0.4l0.3-1.8l0.7,0.4
		V26.9z M34.5,25.7l-0.2-0.1h0.2V25.7z M34.5,25h-0.3l0.3-0.2V25z M34.5,24.5L33.9,25l0.2-1.5l0.4,0.2V24.5z M34.5,23.4l-0.2-0.1
		l0.2-0.1V23.4z M34.5,22.9l-0.3,0.2l0.1-0.5h0.2V22.9z M34.5,22.1h-0.2l0.1-0.4h0.1V22.1z M34.8,28.7v-0.3l0.6,0.3H34.8z M36,28.7
		l-1.2-0.6V27l0.9-0.4L36,28.7z M118.3,28.7c0-0.4,0.3-0.7,0.7-0.7s0.7,0.3,0.7,0.7v0.8h-1.3L118.3,28.7L118.3,28.7z M118.2,29.7
		h1.5v0.2h-1.5V29.7z M119.6,34.2V35h-1.3v-0.8c0-0.4,0.3-0.7,0.7-0.7C119.3,33.4,119.6,33.8,119.6,34.2z M118.2,35.1h1.5v0.2h-1.5
		V35.1z M120.3,44.3h-2.6v-1.6c0-0.8,0.6-1.4,1.3-1.4s1.3,0.6,1.3,1.4V44.3z"/>
	<path class="st2" d="M122.8,22.8h-7.7V23h7.7V22.8z"/>
	<path class="st2" d="M122.8,22.5h-7.6v0.2h7.6V22.5z"/>
	<path class="st2" d="M122.5,22h-7v0.2h7V22z"/>
	<path class="st2" d="M122.6,22.3h-7.3v0.2h7.3V22.3z"/>
	<path class="st1" d="M57.6,114.4h13.2c2,0,4.4-1.2,5.6-2.6c1.3,1.4,3.5,2.6,5.6,2.6h13.2c6.2,0,11.2-5,11.2-11.2v-33H95.1v4.2v19.8
		v4.9c0,2.3-1.9,4.2-4.2,4.2h-4.8c-2.3,0-4.2-1.9-4.2-4.2v-4.9v-1.9V90H65.7v10.4c0.5,0,1.1-0.5,1.3-1.1c0.9-3.2,3.3-4.6,4.7-4.6
		c6.4,0.5,7.2-1.2,8.1-2c-0.2,1.7,0.8,6-3.3,7.7c-2.8,1.2-4.4,0.5-6.2,0.2c-0.6,1.5-2.1,2.6-3.8,2.6h-4.8c-2.3,0-4.2-1.9-4.2-4.2
		v-4.9v-3.5v-0.2V88v-1.5v-0.9c0-2.3,1.9-4.2,4.2-4.2h4.6V70.3h-8.8c-6.2,0-11.2,5-11.2,11.2v2.4v6.8v12.6
		C46.4,109.4,51.4,114.4,57.6,114.4z"/>
	<path class="st1" d="M74.9,95.9c-5.9,0.4-7.4,3.6-8.1,4.6h0.5C69.5,97.7,72.9,96.4,74.9,95.9z"/>
	<path class="st1" d="M19.2,71.5h3.3v2.2L22,73.5V72h-2.8V71.5z M19.2,74.8h3.3v1.6c0,0.2,0,0.3-0.1,0.4c-0.1,0.1-0.1,0.2-0.2,0.3
		c-0.1,0.1-0.2,0.1-0.3,0.2c-0.1,0-0.3,0.1-0.4,0.1c-0.2,0-0.3,0-0.4-0.1c-0.1,0-0.2-0.1-0.3-0.2c-0.1-0.1-0.2-0.2-0.2-0.3
		c-0.1-0.1-0.1-0.3-0.1-0.4v-1.1h-1.2L19.2,74.8L19.2,74.8z M20.8,75.4v0.9c0,0.2,0,0.4,0.1,0.5c0.1,0.1,0.2,0.1,0.4,0.1
		c0.2,0,0.3-0.1,0.4-0.2c0.1-0.1,0.1-0.3,0.1-0.4v-0.9H20.8z M20.8,78.5h0.1c0.2,0,0.4,0,0.6,0.1s0.4,0.2,0.5,0.3s0.2,0.3,0.3,0.5
		c0.1,0.2,0.1,0.4,0.1,0.6s0,0.4-0.1,0.6c-0.1,0.2-0.2,0.4-0.3,0.5s-0.3,0.2-0.5,0.3s-0.4,0.1-0.6,0.1h-0.1c-0.2,0-0.5,0-0.7-0.1
		c-0.2-0.1-0.4-0.2-0.5-0.3c-0.2-0.1-0.3-0.3-0.4-0.5c-0.1-0.2-0.1-0.4-0.1-0.7c0-0.3,0-0.5,0.1-0.7c0.1-0.2,0.2-0.4,0.4-0.5
		c0.2-0.1,0.3-0.2,0.5-0.3C20.3,78.5,20.5,78.5,20.8,78.5z M20.8,79c-0.2,0-0.3,0-0.5,0.1c-0.1,0-0.3,0.1-0.4,0.2
		c-0.1,0.1-0.2,0.2-0.3,0.3s-0.1,0.3-0.1,0.5c0,0.2,0,0.4,0.1,0.5s0.1,0.2,0.2,0.3c0.1,0.1,0.2,0.1,0.4,0.2c0.1,0,0.3,0.1,0.5,0.1
		h0.1c0.3,0,0.6-0.1,0.8-0.3c0.2-0.2,0.3-0.4,0.3-0.8c0-0.3-0.1-0.6-0.3-0.8c-0.1-0.2-0.4-0.3-0.7-0.3H20.8z M19.6,82.9l0.3,0.3
		c-0.1,0.1-0.2,0.2-0.3,0.3c0,0.1-0.1,0.2-0.1,0.4c0,0.2,0,0.4,0.1,0.5s0.2,0.2,0.4,0.2c0.1,0,0.2,0,0.3-0.1c0.1,0,0.1-0.1,0.1-0.1
		c0-0.1,0.1-0.1,0.1-0.2c0-0.1,0-0.2,0-0.3v-0.2H21V84c0,0.2,0,0.3,0.1,0.4s0.2,0.2,0.4,0.2c0.1,0,0.2,0,0.3-0.1
		c0.1-0.1,0.1-0.2,0.1-0.4c0-0.1,0-0.1,0-0.2s0-0.1,0-0.1s0-0.1-0.1-0.1l-0.1-0.1l0.3-0.4c0.2,0.1,0.3,0.3,0.4,0.4
		c0.1,0.2,0.1,0.4,0.1,0.6c0,0.3-0.1,0.6-0.2,0.7c-0.1,0.1-0.4,0.3-0.6,0.3c-0.1,0-0.1,0-0.2,0s-0.1,0-0.2-0.1
		c-0.1,0-0.1-0.1-0.2-0.1S21,84.9,21,84.9c-0.1,0.2-0.2,0.3-0.3,0.3C20.5,85,20.3,85,20.1,85c-0.2,0-0.3,0-0.5-0.1
		c-0.1-0.1-0.2-0.1-0.3-0.3c-0.1-0.1-0.1-0.2-0.2-0.3c0-0.1-0.1-0.3-0.1-0.4s0-0.3,0-0.4s0-0.2,0.1-0.3c0-0.1,0.1-0.2,0.2-0.2
		C19.4,83,19.5,82.9,19.6,82.9z M19.2,86.3h3.3v0.5h-1.3v1.6h1.3V89h-3.3v-0.5h1.5v-1.6h-1.5V86.3z M19.2,90.4h3.3v2.4L22,92.6v-1.7
		h-0.8v1.6h-0.5v-1.6h-1v1.9h-0.5V90.4z M19.2,94.2h3.3v0.5h-1.3v1.6h1.3v0.5h-3.3v-0.5h1.5v-1.6h-1.5V94.2z M20.8,98.1H21
		c0.2,0,0.5,0,0.6,0.1c0.2,0.1,0.4,0.2,0.5,0.3s0.2,0.3,0.3,0.5s0.1,0.4,0.1,0.7c0,0.2,0,0.4-0.1,0.6c-0.1,0.2-0.2,0.3-0.3,0.5
		l-0.4-0.4c0.1-0.1,0.2-0.2,0.2-0.3s0.1-0.2,0.1-0.4c0-0.3-0.1-0.6-0.3-0.7c-0.2-0.2-0.4-0.2-0.8-0.2h-0.2c-0.2,0-0.4,0-0.5,0
		c-0.1,0-0.3,0.1-0.4,0.1c-0.1,0.1-0.2,0.2-0.2,0.3c-0.1,0.1-0.1,0.3-0.1,0.5c0,0.1,0,0.3,0,0.4s0.1,0.2,0.2,0.3l-0.2,0.3
		c-0.1-0.1-0.3-0.3-0.3-0.5c-0.1-0.2-0.1-0.4-0.1-0.6c0-0.3,0-0.5,0.1-0.7c0.1-0.2,0.2-0.4,0.3-0.5s0.3-0.2,0.5-0.3
		C20.3,98.1,20.5,98.1,20.8,98.1z M19.1,102l3.3-0.1v0.5H21v0.3l1.4,0.9v0.6l-1.6-1l-1.6,1.3v-0.6l1.4-1.1v-0.3h-1.5V102z
		 M19.3,105.8l3.3-0.2v0.5l-2.4,0.2l2.5,1.4v0.5l-3.2,0.3V108l2.4-0.2l-2.6-1.4V105.8z M19.8,109.9l3.2-0.5l0.1,0.5l-2.4,0.3
		l2.6,1.3l0.1,0.5l-3.2,0.5l-0.1-0.5l2.4-0.3l-2.7-1.3V109.9z M23.9,109.9c-0.1,0-0.2,0-0.3,0.1c-0.1,0-0.1,0.1-0.2,0.2
		c0,0.1-0.1,0.2-0.1,0.2c0,0.1,0,0.2,0,0.3c0,0.1,0,0.2,0.1,0.2c0,0.1,0.1,0.1,0.1,0.2c0.1,0.1,0.1,0.1,0.2,0.1c0.1,0,0.2,0,0.3,0
		v-0.3c-0.1,0-0.2,0-0.2-0.1c0-0.1-0.1-0.1-0.1-0.2s0-0.2,0-0.3c0-0.1,0.1-0.1,0.2-0.1V109.9z M22,119.1l3.1-1.1l0.7,2h-0.5
		l-0.5-1.4l-2.6,0.9L22,119.1z M24.6,121.5h0.1c0.2-0.1,0.4-0.1,0.6-0.1c0.2,0,0.4,0,0.6,0.1c0.2,0.1,0.3,0.2,0.5,0.3
		c0.1,0.2,0.3,0.3,0.3,0.6c0.1,0.2,0.1,0.4,0.1,0.6s0,0.4-0.1,0.6c-0.1,0.2-0.2,0.3-0.3,0.5c-0.1,0.1-0.3,0.3-0.5,0.3h-0.1
		c-0.2,0.1-0.5,0.1-0.7,0.2c-0.2,0-0.4,0-0.6-0.1s-0.4-0.2-0.5-0.3c-0.2-0.2-0.3-0.4-0.4-0.6c-0.1-0.2-0.1-0.5-0.1-0.7
		c0-0.2,0.1-0.4,0.1-0.6c0.1-0.2,0.2-0.3,0.4-0.5C24.1,121.7,24.3,121.6,24.6,121.5z M24.8,122c-0.2,0.1-0.3,0.1-0.4,0.2
		c-0.1,0.1-0.2,0.2-0.3,0.3s-0.1,0.2-0.1,0.4c0,0.1,0,0.3,0.1,0.5c0.1,0.2,0.2,0.3,0.3,0.4c0.1,0.1,0.2,0.2,0.4,0.2
		c0.1,0,0.3,0,0.4,0c0.2,0,0.3-0.1,0.5-0.1h0.1c0.3-0.1,0.5-0.3,0.6-0.5c0.1-0.2,0.1-0.5,0-0.8c-0.1-0.3-0.3-0.5-0.6-0.6
		c-0.2-0.1-0.5-0.1-0.8,0H24.8z M26.2,125.4l0.2-0.1c0.2-0.1,0.4-0.2,0.6-0.2s0.4,0,0.6,0c0.2,0.1,0.3,0.2,0.5,0.3
		c0.1,0.1,0.3,0.3,0.4,0.5c0.1,0.2,0.1,0.4,0.2,0.5c0,0.2,0,0.4-0.1,0.6l-0.5-0.2c0-0.1,0.1-0.3,0-0.4c0-0.1-0.1-0.2-0.1-0.4
		c-0.2-0.3-0.3-0.5-0.6-0.5c-0.2-0.1-0.5,0-0.8,0.1l-0.1,0.1c-0.2,0.1-0.3,0.2-0.4,0.3s-0.2,0.2-0.3,0.3c-0.1,0.1-0.1,0.2-0.1,0.4
		c0,0.1,0.1,0.3,0.2,0.5c0.1,0.1,0.1,0.2,0.2,0.3s0.2,0.1,0.3,0.2l-0.1,0.5c-0.2-0.1-0.4-0.1-0.5-0.3c-0.1-0.1-0.3-0.3-0.3-0.5
		c-0.1-0.2-0.2-0.5-0.2-0.7c0-0.2,0-0.4,0.1-0.6c0.1-0.2,0.2-0.3,0.3-0.5C25.8,125.7,26,125.5,26.2,125.4z M29.3,127.9l-1.2,1.8
		c0,0.1-0.1,0.1-0.1,0.2c0,0.1,0,0.2,0,0.2h-0.4c-0.1,0-0.1,0-0.2,0l-0.1-0.1l-0.1-0.1l-0.4,0.2c0,0,0,0.1,0,0.2
		c0,0.1,0,0.1,0.1,0.2c0,0.1,0.1,0.1,0.2,0.2c0.1,0,0.1,0.1,0.2,0.1c0.1,0,0.1,0,0.2,0s0.1,0,0.2,0l3-0.3l-0.1-0.5l-2,0.2v-0.1V130
		l1.1-1.6L29.3,127.9z M28.9,132.6c0,0.1,0.1,0.1,0.1,0.1l0.1,0.1h0.1h0.1h0.1h0.1c0.1,0,0.2-0.1,0.4-0.1c0.1,0,0.2-0.1,0.3-0.2
		c0.2-0.1,0.4-0.3,0.7-0.4l0.7-0.5l1.2,1.7l-2.3,1.6l0.2,0.3l-0.9,0.6l-0.3-0.4L30,135l-1.2-1.7l-0.5,0.4l-0.3-0.4L28.9,132.6z
		 M29.4,133.3l0.8,1.1l1.9-1.4l-0.6-0.8l-0.3,0.2c-0.1,0-0.1,0.1-0.2,0.1s-0.1,0.1-0.2,0.1c-0.1,0-0.1,0.1-0.2,0.1s-0.1,0.1-0.2,0.1
		c-0.2,0.1-0.3,0.1-0.5,0.2c-0.1,0-0.2,0.1-0.2,0.1C29.5,133.2,29.5,133.3,29.4,133.3z M31,136.2l0.4,0.4l0.9-0.3l0.8,1l-0.5,0.9
		l0.4,0.4l1.7-3.1l-0.4-0.5L31,136.2z M32.7,136.2l0.6,0.8l0.6-1l0.2-0.3l-0.3,0.2L32.7,136.2z M33.8,139.6l2.4-2.2l1.1,1.2
		c0.1,0.1,0.2,0.2,0.2,0.3c0,0.1,0.1,0.2,0.1,0.4c0,0.1,0,0.2-0.1,0.4c-0.1,0.1-0.1,0.2-0.3,0.3c-0.1,0.1-0.2,0.2-0.3,0.2
		c-0.1,0.1-0.2,0.1-0.4,0.1c-0.1,0-0.2,0-0.4-0.1c-0.1,0-0.2-0.1-0.3-0.2l-0.7-0.8l-0.9,0.8L33.8,139.6z M35.4,138.8l0.6,0.7
		c0.1,0.2,0.3,0.2,0.4,0.2c0.1,0,0.3-0.1,0.4-0.2c0.1-0.1,0.2-0.3,0.2-0.4c0-0.1-0.1-0.3-0.2-0.4l-0.6-0.7L35.4,138.8z M37.4,141
		l0.1-0.1c0.2-0.2,0.3-0.3,0.5-0.4s0.4-0.1,0.5-0.2c0.2,0,0.4,0,0.6,0.1c0.2,0.1,0.4,0.2,0.6,0.4c0.1,0.1,0.3,0.3,0.4,0.4
		c0.1,0.1,0.1,0.4,0.2,0.5h-0.5c0-0.1,0-0.3-0.1-0.4c-0.1-0.1-0.1-0.2-0.2-0.3c-0.2-0.2-0.5-0.3-0.7-0.3s-0.5,0.2-0.7,0.4l-0.1,0.1
		c-0.1,0.1-0.2,0.3-0.3,0.4c-0.1,0.1-0.1,0.3-0.1,0.4s0,0.2,0.1,0.4c0.1,0.1,0.2,0.3,0.3,0.4c0.1,0.1,0.2,0.2,0.3,0.2
		c0.1,0.1,0.2,0.1,0.4,0.1v0.5c-0.2,0-0.4,0-0.6-0.1c-0.2-0.1-0.3-0.2-0.5-0.3c-0.2-0.2-0.3-0.4-0.4-0.6c-0.1-0.2-0.1-0.4-0.1-0.6
		s0.1-0.4,0.2-0.6C37.1,141.4,37.2,141.2,37.4,141z M40.8,142.6l0.8,0.7l-1.8,2.1l0.4,0.3l1.8-2.1l0.7,0.6l0.4-0.3l-2-1.7
		L40.8,142.6z M42,147.1l1.9-2.6l1.1,0.8c0.1,0.1,0.2,0.2,0.3,0.3c0.1,0.1,0.1,0.2,0.2,0.3c0,0.1,0,0.2,0,0.3c0,0.1-0.1,0.2-0.2,0.3
		c-0.2,0.2-0.4,0.3-0.6,0.3c0.1,0.2,0.1,0.3,0.1,0.5s-0.1,0.3-0.2,0.5c-0.1,0.1-0.2,0.2-0.3,0.3c-0.1,0.1-0.2,0.1-0.4,0.1
		c-0.1,0-0.2,0-0.4-0.1c-0.1,0-0.2-0.1-0.4-0.2L42,147.1z M42.7,147l0.8,0.6c0.2,0.1,0.3,0.2,0.4,0.2c0.1,0,0.2-0.1,0.3-0.2
		c0.1-0.1,0.1-0.3,0.1-0.4c0-0.1-0.1-0.2-0.3-0.3l-0.8-0.6L42.7,147z M43.6,145.9l0.7,0.5c0.1,0.1,0.2,0.1,0.3,0.1
		c0.1,0,0.2-0.1,0.3-0.2c0.1-0.1,0.1-0.2,0.1-0.3s-0.1-0.2-0.2-0.2l-0.7-0.5L43.6,145.9z M45.2,149.4l2,1.3l0.3-0.4l-1.6-1l0.5-0.8
		l1.3,0.8l0.3-0.4l-1.3-0.8l0.4-0.7l1.5,0.9L49,148l-2-1.3L45.2,149.4z M48.4,151.3l1.6-2.9l0.5,0.3l-0.6,1.1l1.4,0.7l0.6-1.1
		l0.5,0.3l-1.6,2.9l-0.5-0.3L51,151l-1.4-0.7l-0.7,1.3L48.4,151.3z M52,153.2l0.5,0.2l0.6-1.4l1.4,0.6l-0.6,1.4l0.5,0.2l1.3-3
		l-0.5-0.2l-0.5,1.2l-1.4-0.6l0.5-1.2l-0.5-0.2L52,153.2z M55.7,154.8l1-3.1l0.5,0.2l-0.4,1.3l1,0.3c0.3,0.1,0.5,0.3,0.6,0.5
		c0.1,0.2,0.1,0.5,0,0.8c-0.1,0.2-0.1,0.3-0.2,0.4c-0.1,0.1-0.2,0.2-0.3,0.2c-0.1,0-0.2,0.1-0.4,0.1c-0.1,0-0.3,0-0.4-0.1
		L55.7,154.8z M56.4,154.5l0.9,0.3c0.2,0.1,0.3,0.1,0.4,0c0.1-0.1,0.2-0.2,0.2-0.3c0-0.2,0-0.3,0-0.4c0-0.1-0.2-0.2-0.4-0.2
		l-0.9-0.3L56.4,154.5z M58.4,155.7l0.5,0.2l1-3.1l-0.5-0.2L58.4,155.7z M60.3,156.3l0.9-3.1l0.5,0.1l-0.7,2.3l2.2-1.9l0.5,0.1
		l-0.9,3.1l-0.5-0.1l0.7-2.4l-2.2,1.9H60.3z M62,152.6c0,0.1,0,0.2,0,0.3c0,0.1,0.1,0.2,0.1,0.2c0.1,0.1,0.1,0.1,0.2,0.2
		c0.1,0,0.2,0.1,0.2,0.1c0.1,0,0.2,0,0.3,0c0.1,0,0.2,0,0.2,0c0.1,0,0.1-0.1,0.2-0.1c0.1-0.1,0.1-0.1,0.1-0.2L63,153
		c0,0.1-0.1,0.1-0.2,0.2c-0.1,0-0.2,0-0.3,0s-0.2-0.1-0.2-0.1c-0.1-0.1-0.1-0.1,0-0.2L62,152.6z M69.6,158.2l0.3-3.3l0.5,0.1
		l-0.1,1.3l1.6,0.2l0.1-1.3l0.5,0.1l-0.3,3.3l-0.5-0.1l0.1-1.5l-1.6-0.2l-0.1,1.5L69.6,158.2z M73.6,158.6l0.2-3.3l2.4,0.1l-0.2,0.5
		l-1.7-0.1v0.8l1.6,0.1v0.5l-1.6-0.1l-0.1,1l1.9,0.1v0.5L73.6,158.6z M77.2,157c0-0.3,0-0.4,0.1-0.6c0-0.2,0.1-0.3,0.2-0.4
		s0.2-0.2,0.3-0.3c0.1-0.1,0.3-0.1,0.5-0.1c0.1,0,0.1,0,0.2,0s0.1,0,0.2,0v-0.4h0.5v0.4c0.1,0,0.1,0,0.2-0.1c0.1,0,0.1,0,0.2,0
		c0.2,0,0.4,0,0.5,0.1c0.1,0.1,0.3,0.1,0.4,0.3c0.1,0.1,0.2,0.2,0.2,0.4c0.1,0.2,0.1,0.3,0.1,0.5v0.1c0,0.2,0,0.3-0.1,0.5
		c0,0.2-0.1,0.3-0.2,0.4c-0.1,0.1-0.2,0.2-0.3,0.3c-0.1,0.1-0.3,0.1-0.5,0.1c-0.1,0-0.1,0-0.2,0s-0.1,0-0.2,0v0.5h-0.5v-0.5
		c-0.1,0-0.1,0-0.2,0.1c-0.1,0-0.1,0-0.2,0c-0.2,0-0.4,0-0.5-0.1c-0.1-0.1-0.3-0.1-0.4-0.3c-0.1-0.1-0.2-0.2-0.2-0.4
		C77.2,157.3,77.2,157.2,77.2,157z M77.7,157c0,0.1,0,0.2,0.1,0.3c0,0.1,0.1,0.2,0.1,0.2c0.1,0.1,0.1,0.1,0.2,0.2
		c0.1,0,0.2,0.1,0.3,0c0.1,0,0.1,0,0.2,0s0.1,0,0.2-0.1v-1.5c-0.1,0-0.2-0.1-0.3-0.1s-0.2,0-0.3,0.1c-0.1,0-0.1,0.1-0.2,0.2
		c-0.1,0.1-0.1,0.1-0.1,0.2s0,0.2,0,0.3L77.7,157z M79.2,157.6c0.1,0,0.1,0,0.2,0s0.1,0,0.2,0s0.2,0,0.3-0.1c0.1,0,0.1-0.1,0.2-0.2
		c0-0.1,0.1-0.1,0.1-0.2c0-0.1,0-0.2,0-0.3v-0.1c0-0.1,0-0.2,0-0.3c0-0.1-0.1-0.2-0.1-0.2c-0.1-0.1-0.1-0.1-0.2-0.2
		c-0.1,0-0.2,0-0.3,0s-0.2,0-0.3,0.1L79.2,157.6z M81.5,155.6l-0.1-0.5l2.6-0.3l-0.1,0.5l-0.9,0.1l0.3,2.8l-0.5,0.1l-0.3-2.8
		L81.5,155.6z M85.6,158l-0.1-0.3c0.1,0,0.1,0,0.2-0.1l0.1-0.1l0.6-1.1c-0.3,0-0.5,0-0.7-0.1c-0.2-0.1-0.3-0.3-0.4-0.6
		c0-0.2,0-0.3,0-0.4c0-0.1,0.1-0.2,0.2-0.3s0.2-0.2,0.3-0.2c0.1-0.1,0.2-0.1,0.4-0.1l1.5-0.3l0.7,3.2l-0.5,0.1l-0.3-1.4l-0.3,0.1
		c-0.1,0-0.1,0-0.2,0.1l-0.1,0.1l-0.6,1.2c0,0.1-0.1,0.2-0.2,0.2c-0.1,0.1-0.2,0.1-0.3,0.2h-0.1C85.6,158,85.6,158,85.6,158z
		 M85.8,155.5c0,0.2,0.1,0.3,0.2,0.3s0.2,0.1,0.4,0l1-0.2l-0.2-0.9l-1,0.2c-0.2,0-0.3,0.1-0.4,0.2C85.7,155.2,85.7,155.3,85.8,155.5
		z M89.7,157.1l-0.9-3.1l0.5-0.1l0.3,1.2l1.5-0.4l-0.3-1.2l0.5-0.1l0.9,3.1l-0.5,0.1l-0.4-1.4l-1.5,0.4l0.4,1.4L89.7,157.1z
		 M92.9,154.5v-0.1c-0.1-0.2-0.1-0.4-0.1-0.6s0.1-0.4,0.1-0.6c0.1-0.2,0.2-0.3,0.4-0.5c0.2-0.1,0.3-0.2,0.6-0.3
		c0.2-0.1,0.4-0.1,0.6-0.1s0.4,0.1,0.6,0.1c0.2,0.1,0.3,0.2,0.5,0.4c0.1,0.2,0.2,0.3,0.3,0.6v0.1c0.1,0.2,0.1,0.5,0.1,0.7
		s0,0.4-0.1,0.6s-0.2,0.4-0.4,0.5c-0.2,0.1-0.4,0.3-0.6,0.3c-0.2,0.1-0.5,0.1-0.7,0.1c-0.2,0-0.4-0.1-0.6-0.2
		c-0.2-0.1-0.3-0.2-0.5-0.4C93.1,154.9,93,154.7,92.9,154.5z M93.4,154.3c0.1,0.2,0.1,0.3,0.2,0.4c0.1,0.1,0.2,0.2,0.3,0.3
		s0.2,0.1,0.4,0.1c0.1,0,0.3,0,0.5-0.1c0.2-0.1,0.3-0.1,0.4-0.2c0.1-0.1,0.2-0.2,0.2-0.3s0.1-0.3,0-0.4c0-0.2-0.1-0.3-0.1-0.5v-0.1
		c-0.1-0.3-0.3-0.5-0.5-0.7c-0.2-0.1-0.5-0.1-0.8,0c-0.3,0.1-0.5,0.3-0.6,0.5s-0.1,0.5,0,0.8V154.3z M97.7,154.5l-1.3-3l0.5-0.2
		l1,2.2l0.5-2.9l0.5-0.2l1.3,3l-0.5,0.2l-1-2.2l-0.5,2.9L97.7,154.5z M96.6,150.6c0,0.1,0.1,0.2,0.2,0.2c0.1,0.1,0.1,0.1,0.2,0.1
		s0.2,0,0.2,0c0.1,0,0.2,0,0.2-0.1c0.1,0,0.1-0.1,0.2-0.1c0.1-0.1,0.1-0.1,0.2-0.2c0-0.1,0.1-0.1,0.1-0.2c0-0.1,0-0.2-0.1-0.3
		l-0.3,0.1c0,0.1,0,0.2,0,0.2c-0.1,0.1-0.1,0.1-0.2,0.2c-0.1,0-0.2,0.1-0.3,0.1s-0.1-0.1-0.2-0.1L96.6,150.6z M104.5,148l-0.3-0.4
		l2.3-1.4l0.1,0.5l-0.8,0.5l1.5,2.4l-0.5,0.3l-1.5-2.4L104.5,148z M109.2,148.2l1.9-1.4l-0.3-0.4l-1.5,1.1l-0.6-0.8l1.3-0.9
		l-0.3-0.4l-1.3,0.9l-0.5-0.7l1.4-1l-0.2-0.5l-2,1.4L109.2,148.2z M112.2,146l-0.2-2.1l-1.8-0.4l0.3-0.4l1.1,0.2l0.4,0.2l-0.1-0.5
		l-0.1-1.1l0.5-0.2l0.2,1.8l2.1,0.4l-0.5,0.4l-1.4-0.3l-0.2-0.1l0.1,0.3l0.1,1.4L112.2,146z M115.5,143l0.4-0.4l-1-1.1l1.1-1.1
		l1,1.1l0.4-0.4l-2.2-2.4l-0.4,0.4l0.9,0.9l-1.1,1.1l-0.9-0.9l-0.4,0.4L115.5,143z M118.4,140.2L116,138l0.4-0.4l1.8,1.6l-0.7-2.8
		l0.4-0.4l2.4,2.2l-0.4,0.4l-1.8-1.6l0.7,2.9L118.4,140.2z M119.2,135.9c0.1,0.1,0.3,0.2,0.4,0.2s0.3,0,0.4,0s0.3-0.1,0.4-0.2
		c0.1-0.1,0.2-0.2,0.3-0.3c0.1-0.1,0.2-0.2,0.2-0.4c0-0.1,0.1-0.3,0.1-0.5l1.1,0.9l0.3-0.4l-2.6-2l-0.3,0.4l1.1,0.8
		c0,0.2,0,0.3,0,0.5c0,0.2-0.1,0.3-0.2,0.4c-0.1,0.1-0.1,0.1-0.2,0.2c-0.1,0-0.1,0-0.2,0s-0.2,0-0.2-0.1c-0.1,0-0.2-0.1-0.2-0.1
		l-0.8-0.6l-0.3,0.4L119.2,135.9z M123.3,134.1l-2.7-1.8l1.4-2l0.3,0.4l-1,1.4l0.7,0.5l0.9-1.3l0.4,0.3l-0.9,1.3l0.8,0.6l1-1.5
		l0.4,0.3L123.3,134.1z M123.9,130.2c0.2,0.1,0.4,0.2,0.6,0.3c0.2,0,0.4,0.1,0.6,0c0.2,0,0.4-0.1,0.5-0.2c0.2-0.1,0.3-0.3,0.4-0.6
		c0.1-0.2,0.2-0.4,0.2-0.5c0-0.2,0-0.4-0.1-0.6l-0.5,0.1c0,0.1,0.1,0.3,0,0.4c0,0.1-0.1,0.2-0.1,0.4c-0.1,0.2-0.2,0.3-0.3,0.4
		c-0.1,0.1-0.2,0.1-0.4,0.1c-0.1,0-0.3,0-0.4-0.1c-0.1,0-0.3-0.1-0.5-0.2l-0.1-0.1c-0.3-0.2-0.5-0.4-0.6-0.6c-0.1-0.2,0-0.5,0.1-0.8
		c0.1-0.1,0.1-0.2,0.2-0.3s0.2-0.1,0.3-0.2l-0.1-0.5c-0.2,0.1-0.4,0.1-0.5,0.3c-0.1,0.1-0.3,0.3-0.4,0.4c-0.1,0.2-0.2,0.4-0.2,0.6
		s0,0.4,0,0.6c0.1,0.2,0.1,0.3,0.3,0.5c0.1,0.2,0.3,0.3,0.5,0.4L123.9,130.2z M127.2,127.6l-2.9-1.5l0.2-0.5l1.2,0.6l0.1-0.2
		l-0.8-1.4l0.3-0.5l1,1.6l2.1-0.3l-0.3,0.6l-1.8,0.3l-0.1,0.2l1.3,0.7L127.2,127.6z M128.8,124.2l0.2-0.5l-1.6-2.5l2.3,1l0.2-0.5
		l-3-1.3l-0.2,0.5l1.6,2.4l-2.2-0.9l-0.2,0.5L128.8,124.2z M130.3,120.4l-3.1-1l0.2-0.5l2.3,0.8l-1.8-2.3l0.2-0.5l3.1,1l-0.2,0.5
		l-2.3-0.8l1.8,2.3L130.3,120.4z M126.7,118.5c0.1,0,0.2,0,0.3,0s0.2,0,0.2-0.1c0.1,0,0.1-0.1,0.2-0.2c0-0.1,0.1-0.2,0.1-0.2
		c0-0.1,0-0.2,0-0.2c0-0.1,0-0.2,0-0.2c0-0.1-0.1-0.1-0.1-0.2c-0.1-0.1-0.1-0.1-0.2-0.1l-0.1,0.3c0.1,0,0.1,0.1,0.2,0.2
		c0,0.1,0,0.2,0,0.3s-0.1,0.2-0.1,0.2c-0.1,0.1-0.1,0.1-0.2,0L126.7,118.5z M129.6,111l-0.1-0.5l1.8-0.6c0,0,0.1,0,0.1-0.1
		c0,0,0,0,0-0.1l-1.7-1l0.2-0.5l2.6,1.6c0.1,0,0.1,0.1,0.2,0.1c0.1,0,0.1,0.1,0.1,0.1c0,0.1,0.1,0.1,0.1,0.2c0,0.1,0,0.2,0,0.2
		c0,0.1,0,0.1,0,0.2s0,0.1-0.1,0.2l-0.4-0.1v-0.2c0-0.1,0-0.1,0-0.2c0-0.1-0.1-0.1-0.1-0.1L132,110c0,0.1-0.1,0.1-0.1,0.2
		c-0.1,0-0.1,0.1-0.2,0.1L129.6,111z M133.2,107.4l-3.3-0.3l0.1-0.5l1.3,0.1l0.2-1.6l-1.3-0.1l0.1-0.5l3.3,0.3l-0.1,0.5l-1.5-0.1
		l-0.2,1.6l1.5,0.1L133.2,107.4z M133.5,103.3h-3.3v-0.5h2.4l-2.4-1.6v-0.5h3.3v0.5h-2.4l2.4,1.7V103.3z M133.5,99.2h-3.3v-1.4
		c0-0.1,0-0.3,0-0.4s0.1-0.2,0.2-0.3c0.1-0.1,0.2-0.2,0.3-0.2c0.1,0,0.2-0.1,0.4-0.1c0.3,0,0.5,0.1,0.7,0.3c0.1-0.2,0.2-0.3,0.3-0.4
		c0.1-0.1,0.3-0.1,0.5-0.1c0.2,0,0.3,0,0.4,0.1c0.1,0.1,0.2,0.1,0.3,0.2c0.1,0.1,0.1,0.2,0.2,0.3c0,0.1,0.1,0.3,0.1,0.4L133.5,99.2z
		 M133.1,98.7v-1c0-0.2,0-0.3-0.1-0.4c-0.1-0.1-0.2-0.1-0.4-0.1c-0.2,0-0.3,0-0.4,0.1c-0.1,0.1-0.1,0.2-0.1,0.4v1H133.1z
		 M131.6,98.7v-0.8c0-0.1,0-0.2-0.1-0.3s-0.2-0.1-0.4-0.1c-0.1,0-0.2,0-0.3,0.1c0,0.1-0.1,0.2-0.1,0.3v0.9h0.9V98.7z M133.5,95.3
		h-3.3v-2.4l0.5,0.2v1.7h0.8v-1.6h0.5v1.6h1v-1.9h0.5V95.3z M133.5,91.6h-3.3V90c0-0.2,0-0.3,0.1-0.4c0.1-0.1,0.1-0.2,0.2-0.3
		c0.1-0.1,0.2-0.1,0.3-0.2c0.1,0,0.3-0.1,0.4-0.1c0.1,0,0.3,0,0.4,0.1c0.1,0,0.2,0.1,0.3,0.2c0.1,0.1,0.2,0.2,0.2,0.3
		s0.1,0.3,0.1,0.4v1.1h1.2L133.5,91.6z M131.9,91v-0.9c0-0.2,0-0.4-0.1-0.5c-0.1-0.1-0.2-0.1-0.4-0.1c-0.2,0-0.3,0.1-0.4,0.2
		c-0.1,0.1-0.1,0.3-0.1,0.4V91H131.9z M131.9,87.9h-0.2c-0.2,0-0.5,0-0.6-0.1c-0.2-0.1-0.4-0.2-0.5-0.3c-0.1-0.1-0.2-0.3-0.3-0.5
		c-0.1-0.2-0.1-0.4-0.1-0.7c0-0.2,0-0.4,0.1-0.6c0.1-0.2,0.2-0.3,0.3-0.5l0.4,0.4c-0.1,0.1-0.2,0.2-0.2,0.3s-0.1,0.2-0.1,0.4
		c0,0.3,0.1,0.6,0.3,0.7c0.2,0.2,0.4,0.2,0.8,0.2h0.2c0.2,0,0.4,0,0.5,0s0.3-0.1,0.4-0.1c0.1-0.1,0.2-0.2,0.2-0.3
		c0.1-0.1,0.1-0.3,0.1-0.5c0-0.1,0-0.3,0-0.4s-0.1-0.2-0.2-0.3l0.3-0.4c0.1,0.1,0.3,0.3,0.3,0.5c0.1,0.2,0.1,0.4,0.1,0.6
		c0,0.3,0,0.5-0.1,0.7c-0.1,0.2-0.2,0.4-0.3,0.5c-0.1,0.1-0.3,0.2-0.5,0.3C132.4,87.9,132.2,87.9,131.9,87.9z M133.5,84h-3.3v-0.5
		h2.4l-2.4-1.6v-0.5h3.3v0.5h-2.4l2.4,1.6V84z M130.8,80.1h-0.5v-2.7l0.5,0.2v0.9h2.8V79h-2.8V80.1z M133.5,76.3h-3.3v-2.4l0.5,0.2
		v1.7h0.8v-1.6h0.5v1.6h1v-1.9h0.5V76.3z M130.8,72.7h-0.5V70l0.5,0.2v0.9h2.8v0.5h-2.8V72.7z"/>
	<path class="st2" d="M68.4,126.3l-0.9,0.2l-0.2-1l1.6-0.5h0.8v5.5h-1.2L68.4,126.3L68.4,126.3z"/>
	<path class="st2" d="M70.9,130l0.6-0.9c0.4,0.3,0.7,0.5,1.2,0.5c0.7,0,1-0.5,1.1-1.2c-0.3,0.2-0.6,0.4-1.1,0.4
		c-1.2,0-1.9-0.7-1.9-1.8c0-1.1,0.8-1.9,2.1-1.9c0.7,0,1.2,0.2,1.6,0.6c0.4,0.4,0.6,1,0.6,2.1c0,1.8-0.8,3-2.4,3
		C71.9,130.7,71.4,130.4,70.9,130z M73.8,126.9c0-0.5-0.4-0.8-1-0.8c-0.6,0-0.9,0.3-0.9,0.8s0.4,0.8,0.9,0.8
		C73.5,127.7,73.8,127.4,73.8,126.9z"/>
	<path class="st2" d="M75.8,129.6l1.8-1.5c0.7-0.6,0.9-0.9,0.9-1.3c0-0.5-0.3-0.7-0.7-0.7c-0.4,0-0.7,0.2-1.1,0.7l-0.8-0.7
		c0.5-0.7,1.1-1.1,2-1.1c1.1,0,1.9,0.7,1.9,1.7c0,0.9-0.5,1.4-1.4,2.1l-0.9,0.7h2.4v1h-4L75.8,129.6L75.8,129.6z"/>
	<path class="st2" d="M80.6,127.9c0-1.6,1-2.8,2.4-2.8s2.4,1.2,2.4,2.8s-1,2.8-2.4,2.8S80.6,129.5,80.6,127.9z M84.2,127.9
		c0-1-0.5-1.7-1.2-1.7s-1.2,0.7-1.2,1.7c0,1,0.5,1.7,1.2,1.7C83.8,129.6,84.2,128.9,84.2,127.9z"/>
</a>
</svg>
