<svg xmlns="http://www.w3.org/2000/svg" viewBox="0 0 38.05 52.8"><defs><style>.cls-1{fill:#962237;}</style></defs><title>Ресурс 21short</title><g id="Слой_2" data-name="Слой 2"><g id="Слой_1-2" data-name="Слой 1"><path class="cls-1" d="M0,15V33.78a19,19,0,0,0,38.05,0V15ZM35.71,33.78a16.69,16.69,0,1,1-33.37,0V17.34H35.71Z"/><polygon class="cls-1" points="21.27 23.08 21.27 21.4 16.77 21.4 16.77 28.57 21.27 28.57 21.27 23.08"/><rect class="cls-1" x="35.27" y="1.4" width="1.74" height="0.09"/><rect class="cls-1" x="35.17" y="1.5" width="1.95" height="0.09"/><rect class="cls-1" x="35.06" y="1.61" width="2.18" height="0.09"/><rect class="cls-1" x="34.94" y="1.71" width="2.42" height="0.09"/><rect class="cls-1" x="35.62" y="1.09" width="1.05" height="0.09"/><rect class="cls-1" x="35.75" y="0.98" width="0.79" height="0.09"/><rect class="cls-1" x="35.46" y="1.19" width="1.37" height="0.09"/><rect class="cls-1" x="35.37" y="1.29" width="1.55" height="0.09"/><rect class="cls-1" x="34.87" y="1.81" width="2.56" height="0.09"/><rect class="cls-1" x="34.56" y="2.44" width="3.17" height="0.09"/><rect class="cls-1" x="34.54" y="2.54" width="3.22" height="0.09"/><rect class="cls-1" x="34.8" y="1.92" width="2.69" height="0.09"/><path class="cls-1" d="M37.64,2.82h.41V2.65h-3.8v.17h.48l-.3,6.78H33V9.12h.15v-.4h0v.14H33V8.72h-.06v.14h-.1V8.72h-.06v.14h-.1V8.72h-.06v.14h-.09V8.72h-.07v.14h-.09V8.72H32.3v.14h-.1V8.72h-.06v.14H32V8.72H32v.4h.15V9.6h-1.6V9.12h.15v-.4h0v.14h-.1V8.72h-.06v.14h-.1V8.72h-.06v.14h-.1V8.72h-.06v.14h-.1V8.72H30v.14h-.09V8.72h-.06v.14h-.1V8.72H29.7v.14h-.1V8.72h-.05v.4h.15V9.6H28.1V9.12h.15v-.4H28.2v.14h-.09V8.72h-.06v.14H28V8.72h-.06v.14h-.1V8.72h-.06v.14h-.1V8.72h-.06v.14h-.1V8.72h-.06v.14h-.09V8.72h-.06v.14h-.1V8.72h-.05v.4h.15V9.6H25.81V6.83h-.66V5.56h-3a2.71,2.71,0,0,0-2.6-2.68V1.23a.83.83,0,0,1,.29-.06.46.46,0,0,1,.26.07v.09s0,0,0,0h.17c.27,0,.63,0,.75-.23,0,0,0,0,0,0v-1a.05.05,0,0,0,0,0H21a.75.75,0,0,1-.47.15l-.2,0V.13a.08.08,0,0,0,0,0A.63.63,0,0,0,20,0a1.1,1.1,0,0,0-.5.15h-.13V2.88a2.7,2.7,0,0,0-2.6,2.68h-3V6.83h-.65V9.6H11.72V9.12h.15v-.4h0v.14h-.1V8.72h-.06v.14h-.1V8.72H11.5v.14h-.09V8.72h-.06v.14h-.1V8.72h-.06v.14h-.1V8.72H11v.14h-.1V8.72h-.06v.14h-.1V8.72h0v.4h.15V9.6H9.28V9.12h.15v-.4h0v.14h-.1V8.72H9.22v.14h-.1V8.72H9.06v.14H9V8.72H8.9v.14H8.81V8.72H8.75v.14h-.1V8.72H8.59v.14h-.1V8.72H8.43v.14h-.1V8.72H8.28v.4h.16V9.6H6.83V9.12H7v-.4h0v.14h-.1V8.72H6.78v.14h-.1V8.72H6.62v.14h-.1V8.72H6.46v.14H6.37V8.72H6.31v.14h-.1V8.72H6.15v.14h-.1V8.72H6v.14h-.1V8.72h0v.4H6V9.6H4.54V6h-.3v.45h-.3V6h-.3v.45H3.33V6H3v.45H2.92V5.6a0,0,0,0,0,.05,0V4.92H3a.05.05,0,0,0,.05,0V4.76a.05.05,0,0,0-.05,0H3L2.74,3.43s0,0,0,0V3.28a.05.05,0,0,0,0,0h0l-.07-.38v0l-.1-.59a0,0,0,0,0,0,0V2.1a0,0,0,0,0,0-.05l0-.16s0,0,0,0V1.73a0,0,0,0,0,0-.05H2.08A0,0,0,0,0,2,1.73v.11a.07.07,0,0,0,0,0l0,.16A.05.05,0,0,0,2,2.1v.11s0,0,0,0l-.17,1h0a.06.06,0,0,0-.05,0v.11a.05.05,0,0,0,0,0L1.59,4.71H1.52a0,0,0,0,0-.05,0v.11a0,0,0,0,0,.05,0h.05v.63a0,0,0,0,0,.05,0v.89H1.51V6h-.3v.45H.91V6H.61v.45H.3V6H0v7.43H38.05ZM2.34,1.89h0l0,.16H2.34Zm0,.37h0Zm0,.13.11-.07.07.43-.18-.09Zm0,.38.15.08L2.34,3Zm0,.3.21-.14.05.3H2.34Zm0,.37h.3l0,.29-.35-.18Zm0,.23.27.14-.27.11Zm-.13,1H1.69l.07-.41.45.22Zm0-.3-.36-.18.36-.14Zm0-.43-.42.17.12-.7.3.15Zm0-.49-.09-.05h.09Zm0-.26H2.09l.12-.07Zm0-.19L2,3.21l.1-.59.16.08Zm0-.45-.1,0,.1-.06Zm0-.23-.13.08,0-.18h.1Zm0-.31H2.14l0-.16h0Zm.13,2.66V4.59l.25.12Zm.48,0-.48-.24V4l.37-.16.15.84Zm33.06,0a.28.28,0,0,1,.27-.3.29.29,0,0,1,.27.3v.33h-.54Zm0,.37h.61v.08h-.61Zm.58,1.81v.33h-.54V6.91a.29.29,0,0,1,.27-.3A.3.3,0,0,1,36.42,6.91Zm-.58.38h.61v.07h-.61Zm.82,3.7h-1v-.63a.52.52,0,1,1,1,0Z"/><rect class="cls-1" x="34.6" y="2.33" width="3.1" height="0.09"/><rect class="cls-1" x="34.63" y="2.23" width="3.04" height="0.09"/><rect class="cls-1" x="34.74" y="2.02" width="2.81" height="0.09"/><rect class="cls-1" x="34.69" y="2.13" width="2.92" height="0.09"/><path class="cls-1" d="M11.49,39.16h5.29A3.28,3.28,0,0,0,19,38.1a3.37,3.37,0,0,0,2.25,1.06h5.29a4.5,4.5,0,0,0,4.49-4.5h0V21.4h-4.5V33a1.68,1.68,0,0,1-1.68,1.67H23A1.68,1.68,0,0,1,21.27,33V29.37H14.74v4.16a.64.64,0,0,0,.54-.44h0a2.31,2.31,0,0,1,1.87-1.85c2.57.2,2.91-.47,3.28-.81-.1.69.32,2.4-1.32,3.1a3.63,3.63,0,0,1-2.48.1,1.65,1.65,0,0,1-1.53,1H13.17A1.67,1.67,0,0,1,11.5,33V27.57a1.67,1.67,0,0,1,1.67-1.67H15V21.4H11.49A4.51,4.51,0,0,0,7,25.9H7v8.76H7A4.51,4.51,0,0,0,11.49,39.16Z"/><path class="cls-1" d="M18.44,31.69a3.72,3.72,0,0,0-3.25,1.84h.2A5.92,5.92,0,0,1,18.44,31.69Z"/><polygon class="cls-1" points="15.37 43.64 15.47 44.03 15.85 43.94 15.85 45.65 16.32 45.65 16.32 43.45 15.99 43.45 15.37 43.64"/><path class="cls-1" d="M17.61,43.43a.77.77,0,0,0-.83.76.69.69,0,0,0,.78.71.65.65,0,0,0,.44-.15c0,.3-.17.5-.44.5a.72.72,0,0,1-.48-.19l-.25.37a1.06,1.06,0,0,0,.72.25c.62,0,.95-.48.95-1.19a1.05,1.05,0,0,0-.26-.82A.77.77,0,0,0,17.61,43.43Zm0,1.07c-.24,0-.38-.13-.38-.32a.33.33,0,0,1,.37-.34.34.34,0,0,1,.38.33A.33.33,0,0,1,17.64,44.5Z"/><path class="cls-1" d="M19.8,45c.39-.3.58-.48.58-.85a.67.67,0,0,0-.75-.67.9.9,0,0,0-.81.45l.33.27c.16-.2.28-.29.45-.29a.27.27,0,0,1,.29.28c0,.18-.11.3-.38.52l-.72.6v.38H20.4v-.42h-.95Z"/><path class="cls-1" d="M21.71,43.43a1,1,0,0,0-1,1.13,1,1,0,1,0,1-1.13Zm0,1.82c-.29,0-.48-.29-.48-.69s.19-.7.48-.7.48.3.48.7S22,45.25,21.71,45.25Z"/></g></g></svg>